<mxfile host="app.diagrams.net" agent="Mozilla/5.0 (Windows NT 10.0; Win64; x64) AppleWebKit/537.36 (KHTML, like Gecko) Chrome/131.0.0.0 Safari/537.36" version="25.0.3">
  <diagram name="Page-1" id="8lNzvBrZFHHFjl62bOEU">
    <mxGraphModel dx="880" dy="434" grid="1" gridSize="10" guides="1" tooltips="1" connect="1" arrows="1" fold="1" page="1" pageScale="1" pageWidth="850" pageHeight="1100" math="0" shadow="0">
      <root>
        <mxCell id="0" />
        <mxCell id="1" parent="0" />
        <mxCell id="nqbz1eWqAfOuSdxIIKy2-1" value="Micro-controller" style="whiteSpace=wrap;html=1;aspect=fixed;fillColor=#dae8fc;strokeColor=#6c8ebf;" parent="1" vertex="1">
          <mxGeometry x="40" y="440" width="120" height="120" as="geometry" />
        </mxCell>
        <mxCell id="nqbz1eWqAfOuSdxIIKy2-2" value="IC I2C GPIO&lt;div&gt;( PCF8574 - PCF8575&amp;nbsp;&lt;span style=&quot;background-color: initial;&quot;&gt;)&lt;/span&gt;&lt;/div&gt;" style="shape=parallelogram;perimeter=parallelogramPerimeter;whiteSpace=wrap;html=1;fixedSize=1;fillColor=#f8cecc;strokeColor=#b85450;" parent="1" vertex="1">
          <mxGeometry x="20" y="240" width="160" height="120" as="geometry" />
        </mxCell>
        <mxCell id="43WT8IpedDsQs_NZyyQA-1" value="Motor driver IC 1&lt;div&gt;( L298, L293N )&lt;/div&gt;" style="shape=parallelogram;perimeter=parallelogramPerimeter;whiteSpace=wrap;html=1;fixedSize=1;fillColor=#d5e8d4;gradientColor=#97d077;strokeColor=#82b366;" parent="1" vertex="1">
          <mxGeometry x="420" y="240" width="160" height="120" as="geometry" />
        </mxCell>
        <mxCell id="43WT8IpedDsQs_NZyyQA-2" value="Motor driver IC 2&lt;div&gt;( L298, L293N )&lt;/div&gt;" style="shape=parallelogram;perimeter=parallelogramPerimeter;whiteSpace=wrap;html=1;fixedSize=1;fillColor=#d5e8d4;gradientColor=#97d077;strokeColor=#82b366;" parent="1" vertex="1">
          <mxGeometry x="420" y="480" width="160" height="120" as="geometry" />
        </mxCell>
        <mxCell id="43WT8IpedDsQs_NZyyQA-3" value="Power supply&lt;div&gt;( 5 - 12 V )&lt;/div&gt;" style="whiteSpace=wrap;html=1;aspect=fixed;fillColor=#fff2cc;strokeColor=#d6b656;" parent="1" vertex="1">
          <mxGeometry x="260" y="360" width="120" height="120" as="geometry" />
        </mxCell>
        <mxCell id="43WT8IpedDsQs_NZyyQA-5" value="" style="endArrow=classic;html=1;rounded=0;exitX=0.5;exitY=0;exitDx=0;exitDy=0;entryX=0;entryY=1;entryDx=0;entryDy=0;" parent="1" source="43WT8IpedDsQs_NZyyQA-3" target="43WT8IpedDsQs_NZyyQA-1" edge="1">
          <mxGeometry width="50" height="50" relative="1" as="geometry">
            <mxPoint x="320" y="360" as="sourcePoint" />
            <mxPoint x="410" y="330" as="targetPoint" />
            <Array as="points">
              <mxPoint x="320" y="330" />
              <mxPoint x="400" y="330" />
              <mxPoint x="400" y="360" />
            </Array>
          </mxGeometry>
        </mxCell>
        <mxCell id="43WT8IpedDsQs_NZyyQA-6" value="" style="endArrow=classic;html=1;rounded=0;exitX=0.5;exitY=1;exitDx=0;exitDy=0;entryX=0.125;entryY=0;entryDx=0;entryDy=0;entryPerimeter=0;" parent="1" source="43WT8IpedDsQs_NZyyQA-3" target="43WT8IpedDsQs_NZyyQA-2" edge="1">
          <mxGeometry width="50" height="50" relative="1" as="geometry">
            <mxPoint x="320" y="550" as="sourcePoint" />
            <mxPoint x="420" y="520" as="targetPoint" />
            <Array as="points">
              <mxPoint x="320" y="520" />
              <mxPoint x="400" y="520" />
              <mxPoint x="400" y="480" />
            </Array>
          </mxGeometry>
        </mxCell>
        <mxCell id="43WT8IpedDsQs_NZyyQA-9" value="" style="endArrow=classic;html=1;rounded=0;entryX=0;entryY=0.5;entryDx=0;entryDy=0;exitX=1;exitY=0.5;exitDx=0;exitDy=0;" parent="1" source="nqbz1eWqAfOuSdxIIKy2-2" target="43WT8IpedDsQs_NZyyQA-1" edge="1">
          <mxGeometry width="50" height="50" relative="1" as="geometry">
            <mxPoint x="190" y="280" as="sourcePoint" />
            <mxPoint x="400" y="410" as="targetPoint" />
          </mxGeometry>
        </mxCell>
        <mxCell id="43WT8IpedDsQs_NZyyQA-10" value="" style="endArrow=classic;html=1;rounded=0;entryX=0;entryY=0.5;entryDx=0;entryDy=0;" parent="1" target="43WT8IpedDsQs_NZyyQA-2" edge="1">
          <mxGeometry width="50" height="50" relative="1" as="geometry">
            <mxPoint x="180" y="300" as="sourcePoint" />
            <mxPoint x="180" y="560" as="targetPoint" />
            <Array as="points">
              <mxPoint x="180" y="540" />
            </Array>
          </mxGeometry>
        </mxCell>
        <mxCell id="43WT8IpedDsQs_NZyyQA-11" value="" style="endArrow=classic;startArrow=classic;html=1;rounded=0;exitX=0.5;exitY=0;exitDx=0;exitDy=0;entryX=0.5;entryY=1;entryDx=0;entryDy=0;" parent="1" source="nqbz1eWqAfOuSdxIIKy2-1" target="nqbz1eWqAfOuSdxIIKy2-2" edge="1">
          <mxGeometry width="50" height="50" relative="1" as="geometry">
            <mxPoint x="280" y="410" as="sourcePoint" />
            <mxPoint x="330" y="360" as="targetPoint" />
          </mxGeometry>
        </mxCell>
        <mxCell id="43WT8IpedDsQs_NZyyQA-12" value="I2C BUS" style="text;html=1;align=center;verticalAlign=middle;whiteSpace=wrap;rounded=0;" parent="1" vertex="1">
          <mxGeometry x="40" y="390" width="60" height="30" as="geometry" />
        </mxCell>
        <mxCell id="43WT8IpedDsQs_NZyyQA-13" value="&lt;div&gt;Encoder&lt;/div&gt;Motor 1" style="ellipse;whiteSpace=wrap;html=1;aspect=fixed;fillColor=#bac8d3;strokeColor=#23445d;" parent="1" vertex="1">
          <mxGeometry x="640" y="200" width="80" height="80" as="geometry" />
        </mxCell>
        <mxCell id="43WT8IpedDsQs_NZyyQA-14" value="&lt;div&gt;Encoder&lt;/div&gt;Motor 2" style="ellipse;whiteSpace=wrap;html=1;aspect=fixed;fillColor=#bac8d3;strokeColor=#23445d;" parent="1" vertex="1">
          <mxGeometry x="640" y="320" width="80" height="80" as="geometry" />
        </mxCell>
        <mxCell id="43WT8IpedDsQs_NZyyQA-15" value="&lt;div&gt;Encoder&lt;/div&gt;Motor 3" style="ellipse;whiteSpace=wrap;html=1;aspect=fixed;fillColor=#bac8d3;strokeColor=#23445d;" parent="1" vertex="1">
          <mxGeometry x="640" y="440" width="80" height="80" as="geometry" />
        </mxCell>
        <mxCell id="43WT8IpedDsQs_NZyyQA-16" value="&lt;div&gt;Encoder&lt;/div&gt;Motor 4" style="ellipse;whiteSpace=wrap;html=1;aspect=fixed;fillColor=#bac8d3;strokeColor=#23445d;" parent="1" vertex="1">
          <mxGeometry x="640" y="560" width="80" height="80" as="geometry" />
        </mxCell>
        <mxCell id="43WT8IpedDsQs_NZyyQA-17" value="" style="endArrow=classic;html=1;rounded=0;exitX=1;exitY=0;exitDx=0;exitDy=0;" parent="1" source="43WT8IpedDsQs_NZyyQA-1" edge="1">
          <mxGeometry width="50" height="50" relative="1" as="geometry">
            <mxPoint x="590" y="290" as="sourcePoint" />
            <mxPoint x="640" y="240" as="targetPoint" />
          </mxGeometry>
        </mxCell>
        <mxCell id="43WT8IpedDsQs_NZyyQA-18" value="" style="endArrow=classic;html=1;rounded=0;exitX=0.873;exitY=0.992;exitDx=0;exitDy=0;entryX=0;entryY=0.5;entryDx=0;entryDy=0;exitPerimeter=0;" parent="1" source="43WT8IpedDsQs_NZyyQA-1" target="43WT8IpedDsQs_NZyyQA-14" edge="1">
          <mxGeometry width="50" height="50" relative="1" as="geometry">
            <mxPoint x="570" y="359.46" as="sourcePoint" />
            <mxPoint x="630" y="359.46" as="targetPoint" />
          </mxGeometry>
        </mxCell>
        <mxCell id="43WT8IpedDsQs_NZyyQA-19" value="" style="endArrow=classic;html=1;rounded=0;exitX=1;exitY=0;exitDx=0;exitDy=0;" parent="1" edge="1">
          <mxGeometry width="50" height="50" relative="1" as="geometry">
            <mxPoint x="580" y="480" as="sourcePoint" />
            <mxPoint x="640" y="480" as="targetPoint" />
          </mxGeometry>
        </mxCell>
        <mxCell id="43WT8IpedDsQs_NZyyQA-20" value="" style="endArrow=classic;html=1;rounded=0;exitX=0.873;exitY=0.992;exitDx=0;exitDy=0;entryX=0;entryY=0.5;entryDx=0;entryDy=0;exitPerimeter=0;" parent="1" edge="1">
          <mxGeometry width="50" height="50" relative="1" as="geometry">
            <mxPoint x="560" y="599" as="sourcePoint" />
            <mxPoint x="640" y="600" as="targetPoint" />
          </mxGeometry>
        </mxCell>
        <mxCell id="43WT8IpedDsQs_NZyyQA-21" value="GPIO P03-P00" style="text;html=1;align=center;verticalAlign=middle;whiteSpace=wrap;rounded=0;" parent="1" vertex="1">
          <mxGeometry x="260" y="270" width="90" height="30" as="geometry" />
        </mxCell>
        <mxCell id="43WT8IpedDsQs_NZyyQA-22" value="GPIO P07-P04" style="text;html=1;align=center;verticalAlign=middle;whiteSpace=wrap;rounded=0;" parent="1" vertex="1">
          <mxGeometry x="200" y="510" width="90" height="30" as="geometry" />
        </mxCell>
        <mxCell id="43WT8IpedDsQs_NZyyQA-23" value="" style="endArrow=classic;html=1;rounded=0;entryX=0;entryY=1;entryDx=0;entryDy=0;" parent="1" target="nqbz1eWqAfOuSdxIIKy2-1" edge="1">
          <mxGeometry width="50" height="50" relative="1" as="geometry">
            <mxPoint x="720" y="240" as="sourcePoint" />
            <mxPoint x="40" y="721.25" as="targetPoint" />
            <Array as="points">
              <mxPoint x="800" y="240" />
              <mxPoint x="800" y="720" />
              <mxPoint x="40" y="720" />
            </Array>
          </mxGeometry>
        </mxCell>
        <mxCell id="43WT8IpedDsQs_NZyyQA-26" value="" style="endArrow=classic;html=1;rounded=0;entryX=0.336;entryY=1.025;entryDx=0;entryDy=0;entryPerimeter=0;" parent="1" target="nqbz1eWqAfOuSdxIIKy2-1" edge="1">
          <mxGeometry width="50" height="50" relative="1" as="geometry">
            <mxPoint x="720" y="360" as="sourcePoint" />
            <mxPoint x="80" y="680" as="targetPoint" />
            <Array as="points">
              <mxPoint x="780" y="360" />
              <mxPoint x="780" y="700" />
              <mxPoint x="80" y="700" />
            </Array>
          </mxGeometry>
        </mxCell>
        <mxCell id="43WT8IpedDsQs_NZyyQA-28" value="" style="endArrow=classic;html=1;rounded=0;entryX=0.654;entryY=0.989;entryDx=0;entryDy=0;entryPerimeter=0;" parent="1" target="nqbz1eWqAfOuSdxIIKy2-1" edge="1">
          <mxGeometry width="50" height="50" relative="1" as="geometry">
            <mxPoint x="720" y="480" as="sourcePoint" />
            <mxPoint x="100" y="662.1052631578947" as="targetPoint" />
            <Array as="points">
              <mxPoint x="760" y="480" />
              <mxPoint x="760" y="680" />
              <mxPoint x="120" y="680" />
            </Array>
          </mxGeometry>
        </mxCell>
        <mxCell id="43WT8IpedDsQs_NZyyQA-29" value="" style="endArrow=classic;html=1;rounded=0;entryX=1;entryY=1;entryDx=0;entryDy=0;" parent="1" target="nqbz1eWqAfOuSdxIIKy2-1" edge="1">
          <mxGeometry width="50" height="50" relative="1" as="geometry">
            <mxPoint x="720" y="600" as="sourcePoint" />
            <mxPoint x="170" y="660" as="targetPoint" />
            <Array as="points">
              <mxPoint x="740" y="600" />
              <mxPoint x="740" y="660" />
              <mxPoint x="160" y="660" />
            </Array>
          </mxGeometry>
        </mxCell>
        <mxCell id="43WT8IpedDsQs_NZyyQA-31" value="Speed 4" style="text;html=1;align=center;verticalAlign=middle;whiteSpace=wrap;rounded=0;rotation=90;" parent="1" vertex="1">
          <mxGeometry x="30" y="612.5" width="50" height="27.5" as="geometry" />
        </mxCell>
        <mxCell id="43WT8IpedDsQs_NZyyQA-32" value="Speed 3" style="text;html=1;align=center;verticalAlign=middle;whiteSpace=wrap;rounded=0;rotation=90;" parent="1" vertex="1">
          <mxGeometry x="70" y="612.5" width="50" height="27.5" as="geometry" />
        </mxCell>
        <mxCell id="43WT8IpedDsQs_NZyyQA-33" value="Speed 2" style="text;html=1;align=center;verticalAlign=middle;whiteSpace=wrap;rounded=0;rotation=90;" parent="1" vertex="1">
          <mxGeometry x="110" y="612.5" width="50" height="27.5" as="geometry" />
        </mxCell>
        <mxCell id="43WT8IpedDsQs_NZyyQA-34" value="Speed 1" style="text;html=1;align=center;verticalAlign=middle;whiteSpace=wrap;rounded=0;rotation=90;" parent="1" vertex="1">
          <mxGeometry x="150" y="612.5" width="50" height="27.5" as="geometry" />
        </mxCell>
      </root>
    </mxGraphModel>
  </diagram>
</mxfile>
